<mxfile host="65bd71144e">
    <diagram id="rOA6H69Jcy2FFckjgFXm" name="第 1 页">
        <mxGraphModel dx="1024" dy="1006" grid="1" gridSize="10" guides="1" tooltips="1" connect="1" arrows="1" fold="1" page="1" pageScale="1" pageWidth="827" pageHeight="1169" math="0" shadow="0">
            <root>
                <mxCell id="0"/>
                <mxCell id="1" parent="0"/>
                <mxCell id="2" value="家教" style="shape=umlActor;verticalLabelPosition=bottom;verticalAlign=top;html=1;direction=east;" vertex="1" parent="1">
                    <mxGeometry x="40" y="110" width="30" height="60" as="geometry"/>
                </mxCell>
                <mxCell id="6" value="家长/学生&lt;div&gt;&lt;br&gt;&lt;/div&gt;" style="shape=umlActor;verticalLabelPosition=bottom;verticalAlign=top;html=1;" vertex="1" parent="1">
                    <mxGeometry x="30" y="545" width="30" height="60" as="geometry"/>
                </mxCell>
                <mxCell id="9" value="用户&lt;div&gt;&lt;br&gt;&lt;/div&gt;" style="shape=umlActor;verticalLabelPosition=bottom;verticalAlign=top;html=1;" vertex="1" parent="1">
                    <mxGeometry x="120" y="330" width="30" height="60" as="geometry"/>
                </mxCell>
                <mxCell id="10" value="浏览家长需求列表" style="ellipse;whiteSpace=wrap;html=1;" vertex="1" parent="1">
                    <mxGeometry x="204" y="40" width="106" height="40" as="geometry"/>
                </mxCell>
                <mxCell id="11" value="申请匹配" style="ellipse;whiteSpace=wrap;html=1;" vertex="1" parent="1">
                    <mxGeometry x="200.25" y="90" width="116" height="40" as="geometry"/>
                </mxCell>
                <mxCell id="12" value="接受或拒绝家长订单" style="ellipse;whiteSpace=wrap;html=1;" vertex="1" parent="1">
                    <mxGeometry x="199" y="140" width="116" height="40" as="geometry"/>
                </mxCell>
                <mxCell id="14" value="查看评价与收入" style="ellipse;whiteSpace=wrap;html=1;" vertex="1" parent="1">
                    <mxGeometry x="199" y="240" width="116" height="40" as="geometry"/>
                </mxCell>
                <mxCell id="15" value="完善或修改资料" style="ellipse;whiteSpace=wrap;html=1;" vertex="1" parent="1">
                    <mxGeometry x="199" y="340" width="101" height="40" as="geometry"/>
                </mxCell>
                <mxCell id="16" value="精准搜索" style="ellipse;whiteSpace=wrap;html=1;" vertex="1" parent="1">
                    <mxGeometry x="199" y="390" width="111" height="40" as="geometry"/>
                </mxCell>
                <mxCell id="17" value="发布具体需求" style="ellipse;whiteSpace=wrap;html=1;" vertex="1" parent="1">
                    <mxGeometry x="204" y="460" width="106" height="40" as="geometry"/>
                </mxCell>
                <mxCell id="18" value="查看老师信息" style="ellipse;whiteSpace=wrap;html=1;" vertex="1" parent="1">
                    <mxGeometry x="212" y="565" width="90" height="40" as="geometry"/>
                </mxCell>
                <mxCell id="19" value="中途退课" style="ellipse;whiteSpace=wrap;html=1;" vertex="1" parent="1">
                    <mxGeometry x="204" y="720" width="106" height="40" as="geometry"/>
                </mxCell>
                <mxCell id="20" value="评价家教" style="ellipse;whiteSpace=wrap;html=1;" vertex="1" parent="1">
                    <mxGeometry x="206.5" y="780" width="111" height="30" as="geometry"/>
                </mxCell>
                <mxCell id="21" value="浏览推荐老师列表" style="ellipse;whiteSpace=wrap;html=1;" vertex="1" parent="1">
                    <mxGeometry x="206.5" y="510" width="103.5" height="40" as="geometry"/>
                </mxCell>
                <mxCell id="22" value="预约试课" style="ellipse;whiteSpace=wrap;html=1;" vertex="1" parent="1">
                    <mxGeometry x="206.5" y="620" width="103.5" height="40" as="geometry"/>
                </mxCell>
                <mxCell id="23" value="确认正式订单" style="ellipse;whiteSpace=wrap;html=1;" vertex="1" parent="1">
                    <mxGeometry x="206.5" y="670" width="103.5" height="40" as="geometry"/>
                </mxCell>
                <mxCell id="24" value="生成推荐列表" style="ellipse;whiteSpace=wrap;html=1;" vertex="1" parent="1">
                    <mxGeometry x="425" y="60" width="110" height="40" as="geometry"/>
                </mxCell>
                <object placeholders="1" c4Name="家教系统" c4Type="SystemScopeBoundary" c4Application="软件工程" label="&lt;font style=&quot;font-size: 16px&quot;&gt;&lt;b&gt;&lt;div style=&quot;text-align: left&quot;&gt;%c4Name%&lt;/div&gt;&lt;/b&gt;&lt;/font&gt;&lt;div style=&quot;text-align: left&quot;&gt;[%c4Application%]&lt;/div&gt;" id="28">
                    <mxCell style="rounded=1;fontSize=11;whiteSpace=wrap;html=1;dashed=1;arcSize=20;fillColor=none;strokeColor=#666666;fontColor=#333333;labelBackgroundColor=none;align=left;verticalAlign=bottom;labelBorderColor=none;spacingTop=0;spacing=10;dashPattern=8 4;metaEdit=1;rotatable=0;perimeter=rectanglePerimeter;noLabel=0;labelPadding=0;allowArrows=0;connectable=0;expand=0;recursiveResize=0;editable=1;pointerEvents=0;absoluteArcSize=1;points=[[0.25,0,0],[0.5,0,0],[0.75,0,0],[1,0.25,0],[1,0.5,0],[1,0.75,0],[0.75,1,0],[0.5,1,0],[0.25,1,0],[0,0.75,0],[0,0.5,0],[0,0.25,0]];" vertex="1" parent="1">
                        <mxGeometry x="180" y="20" width="420" height="860" as="geometry"/>
                    </mxCell>
                </object>
                <mxCell id="38" value="" style="edgeStyle=none;html=1;endSize=12;endArrow=block;endFill=0;entryX=0.5;entryY=0.5;entryDx=0;entryDy=0;entryPerimeter=0;exitX=0.5;exitY=0.5;exitDx=0;exitDy=0;exitPerimeter=0;" edge="1" parent="1" source="2" target="9">
                    <mxGeometry width="160" relative="1" as="geometry">
                        <mxPoint x="-70" y="100" as="sourcePoint"/>
                        <mxPoint x="90" y="100" as="targetPoint"/>
                    </mxGeometry>
                </mxCell>
                <mxCell id="39" value="" style="edgeStyle=none;html=1;endSize=12;endArrow=block;endFill=0;entryX=0.5;entryY=0.5;entryDx=0;entryDy=0;entryPerimeter=0;exitX=0.5;exitY=0.5;exitDx=0;exitDy=0;exitPerimeter=0;" edge="1" parent="1" source="6" target="9">
                    <mxGeometry width="160" relative="1" as="geometry">
                        <mxPoint x="60" y="385" as="sourcePoint"/>
                        <mxPoint x="140" y="505" as="targetPoint"/>
                    </mxGeometry>
                </mxCell>
                <mxCell id="46" value="" style="endArrow=none;startArrow=none;endFill=0;startFill=0;endSize=8;html=1;verticalAlign=bottom;labelBackgroundColor=none;strokeWidth=3;" edge="1" parent="1" target="10">
                    <mxGeometry width="160" relative="1" as="geometry">
                        <mxPoint x="80" y="139.41" as="sourcePoint"/>
                        <mxPoint x="240" y="139.41" as="targetPoint"/>
                    </mxGeometry>
                </mxCell>
                <mxCell id="47" value="" style="endArrow=none;startArrow=none;endFill=0;startFill=0;endSize=8;html=1;verticalAlign=bottom;labelBackgroundColor=none;strokeWidth=3;" edge="1" parent="1" target="11">
                    <mxGeometry width="160" relative="1" as="geometry">
                        <mxPoint x="90" y="149.41" as="sourcePoint"/>
                        <mxPoint x="221" y="120" as="targetPoint"/>
                    </mxGeometry>
                </mxCell>
                <mxCell id="48" value="&lt;span style=&quot;font-family: monospace; font-size: 0px; text-align: start;&quot;&gt;%3CmxGraphModel%3E%3Croot%3E%3CmxCell%20id%3D%220%22%2F%3E%3CmxCell%20id%3D%221%22%20parent%3D%220%22%2F%3E%3CmxCell%20id%3D%222%22%20value%3D%22%22%20style%3D%22endArrow%3Dnone%3BstartArrow%3Dnone%3BendFill%3D0%3BstartFill%3D0%3BendSize%3D8%3Bhtml%3D1%3BverticalAlign%3Dbottom%3BlabelBackgroundColor%3Dnone%3BstrokeWidth%3D3%3B%22%20edge%3D%221%22%20parent%3D%221%22%3E%3CmxGeometry%20width%3D%22160%22%20relative%3D%221%22%20as%3D%22geometry%22%3E%3CmxPoint%20x%3D%2290%22%20y%3D%22159%22%20as%3D%22sourcePoint%22%2F%3E%3CmxPoint%20x%3D%22199%22%20y%3D%22160%22%20as%3D%22targetPoint%22%2F%3E%3C%2FmxGeometry%3E%3C%2FmxCell%3E%3C%2Froot%3E%3C%2FmxGraphModel%3E&lt;/span&gt;&lt;span style=&quot;font-family: monospace; font-size: 0px; text-align: start;&quot;&gt;%3CmxGraphModel%3E%3Croot%3E%3CmxCell%20id%3D%220%22%2F%3E%3CmxCell%20id%3D%221%22%20parent%3D%220%22%2F%3E%3CmxCell%20id%3D%222%22%20value%3D%22%22%20style%3D%22endArrow%3Dnone%3BstartArrow%3Dnone%3BendFill%3D0%3BstartFill%3D0%3BendSize%3D8%3Bhtml%3D1%3BverticalAlign%3Dbottom%3BlabelBackgroundColor%3Dnone%3BstrokeWidth%3D3%3B%22%20edge%3D%221%22%20parent%3D%221%22%3E%3CmxGeometry%20width%3D%22160%22%20relative%3D%221%22%20as%3D%22geometry%22%3E%3CmxPoint%20x%3D%2290%22%20y%3D%22159%22%20as%3D%22sourcePoint%22%2F%3E%3CmxPoint%20x%3D%22199%22%20y%3D%22160%22%20as%3D%22targetPoint%22%2F%3E%3C%2FmxGeometry%3E%3C%2FmxCell%3E%3C%2Froot%3E%3C%2FmxGraphModel%3E&lt;/span&gt;" style="endArrow=none;startArrow=none;endFill=0;startFill=0;endSize=8;html=1;verticalAlign=bottom;labelBackgroundColor=none;strokeWidth=3;" edge="1" parent="1" target="12">
                    <mxGeometry width="160" relative="1" as="geometry">
                        <mxPoint x="90" y="159" as="sourcePoint"/>
                        <mxPoint x="231" y="130" as="targetPoint"/>
                    </mxGeometry>
                </mxCell>
                <mxCell id="49" value="" style="endArrow=none;startArrow=none;endFill=0;startFill=0;endSize=8;html=1;verticalAlign=bottom;labelBackgroundColor=none;strokeWidth=3;" edge="1" parent="1" target="14">
                    <mxGeometry width="160" relative="1" as="geometry">
                        <mxPoint x="80" y="169" as="sourcePoint"/>
                        <mxPoint x="241" y="140" as="targetPoint"/>
                    </mxGeometry>
                </mxCell>
                <mxCell id="50" value="注册登录" style="ellipse;whiteSpace=wrap;html=1;" vertex="1" parent="1">
                    <mxGeometry x="204" y="290" width="96" height="40" as="geometry"/>
                </mxCell>
                <mxCell id="51" value="" style="endArrow=none;startArrow=none;endFill=0;startFill=0;endSize=8;html=1;verticalAlign=bottom;labelBackgroundColor=none;strokeWidth=3;exitX=0.516;exitY=0.423;exitDx=0;exitDy=0;exitPerimeter=0;" edge="1" parent="1" source="9" target="50">
                    <mxGeometry width="160" relative="1" as="geometry">
                        <mxPoint x="140" y="319.41" as="sourcePoint"/>
                        <mxPoint x="300" y="319.41" as="targetPoint"/>
                    </mxGeometry>
                </mxCell>
                <mxCell id="52" value="" style="endArrow=none;startArrow=none;endFill=0;startFill=0;endSize=8;html=1;verticalAlign=bottom;labelBackgroundColor=none;strokeWidth=3;" edge="1" parent="1" source="9" target="15">
                    <mxGeometry width="160" relative="1" as="geometry">
                        <mxPoint x="150" y="329.41" as="sourcePoint"/>
                        <mxPoint x="215" y="323" as="targetPoint"/>
                    </mxGeometry>
                </mxCell>
                <mxCell id="53" value="" style="endArrow=none;startArrow=none;endFill=0;startFill=0;endSize=8;html=1;verticalAlign=bottom;labelBackgroundColor=none;strokeWidth=3;exitX=0.559;exitY=0.605;exitDx=0;exitDy=0;exitPerimeter=0;" edge="1" parent="1" source="9" target="16">
                    <mxGeometry width="160" relative="1" as="geometry">
                        <mxPoint x="160" y="339.41" as="sourcePoint"/>
                        <mxPoint x="225" y="333" as="targetPoint"/>
                    </mxGeometry>
                </mxCell>
                <mxCell id="57" value="" style="endArrow=none;startArrow=none;endFill=0;startFill=0;endSize=8;html=1;verticalAlign=bottom;labelBackgroundColor=none;strokeWidth=3;" edge="1" parent="1" target="17">
                    <mxGeometry width="160" relative="1" as="geometry">
                        <mxPoint x="52" y="574.41" as="sourcePoint"/>
                        <mxPoint x="212" y="574.41" as="targetPoint"/>
                    </mxGeometry>
                </mxCell>
                <mxCell id="59" value="" style="endArrow=none;startArrow=none;endFill=0;startFill=0;endSize=8;html=1;verticalAlign=bottom;labelBackgroundColor=none;strokeWidth=3;" edge="1" parent="1" target="21">
                    <mxGeometry width="160" relative="1" as="geometry">
                        <mxPoint x="50" y="580" as="sourcePoint"/>
                        <mxPoint x="233" y="505" as="targetPoint"/>
                    </mxGeometry>
                </mxCell>
                <mxCell id="60" value="" style="endArrow=none;startArrow=none;endFill=0;startFill=0;endSize=8;html=1;verticalAlign=bottom;labelBackgroundColor=none;strokeWidth=3;" edge="1" parent="1" target="18">
                    <mxGeometry width="160" relative="1" as="geometry">
                        <mxPoint x="50" y="575" as="sourcePoint"/>
                        <mxPoint x="243" y="515" as="targetPoint"/>
                    </mxGeometry>
                </mxCell>
                <mxCell id="61" value="" style="endArrow=none;startArrow=none;endFill=0;startFill=0;endSize=8;html=1;verticalAlign=bottom;labelBackgroundColor=none;strokeWidth=3;" edge="1" parent="1" target="22">
                    <mxGeometry width="160" relative="1" as="geometry">
                        <mxPoint x="50" y="575" as="sourcePoint"/>
                        <mxPoint x="253" y="525" as="targetPoint"/>
                    </mxGeometry>
                </mxCell>
                <mxCell id="62" value="" style="endArrow=none;startArrow=none;endFill=0;startFill=0;endSize=8;html=1;verticalAlign=bottom;labelBackgroundColor=none;strokeWidth=3;" edge="1" parent="1" target="23">
                    <mxGeometry width="160" relative="1" as="geometry">
                        <mxPoint x="50" y="575" as="sourcePoint"/>
                        <mxPoint x="263" y="535" as="targetPoint"/>
                    </mxGeometry>
                </mxCell>
                <mxCell id="63" value="" style="endArrow=none;startArrow=none;endFill=0;startFill=0;endSize=8;html=1;verticalAlign=bottom;labelBackgroundColor=none;strokeWidth=3;exitX=0.5;exitY=0.5;exitDx=0;exitDy=0;exitPerimeter=0;" edge="1" parent="1" source="6" target="19">
                    <mxGeometry width="160" relative="1" as="geometry">
                        <mxPoint x="102" y="624.41" as="sourcePoint"/>
                        <mxPoint x="273" y="545" as="targetPoint"/>
                    </mxGeometry>
                </mxCell>
                <mxCell id="64" value="" style="endArrow=none;startArrow=none;endFill=0;startFill=0;endSize=8;html=1;verticalAlign=bottom;labelBackgroundColor=none;strokeWidth=3;" edge="1" parent="1" target="20">
                    <mxGeometry width="160" relative="1" as="geometry">
                        <mxPoint x="50" y="580" as="sourcePoint"/>
                        <mxPoint x="283" y="555" as="targetPoint"/>
                    </mxGeometry>
                </mxCell>
                <mxCell id="67" value="计算学生和老师特征向量匹配度" style="ellipse;whiteSpace=wrap;html=1;" vertex="1" parent="1">
                    <mxGeometry x="390" y="150" width="180" height="60" as="geometry"/>
                </mxCell>
                <mxCell id="68" value="生成学生和老师特征向量" style="ellipse;whiteSpace=wrap;html=1;" vertex="1" parent="1">
                    <mxGeometry x="410" y="260" width="140" height="60" as="geometry"/>
                </mxCell>
                <mxCell id="69" value="审核资料" style="ellipse;whiteSpace=wrap;html=1;" vertex="1" parent="1">
                    <mxGeometry x="425" y="350" width="110" height="40" as="geometry"/>
                </mxCell>
                <mxCell id="70" value="处理投诉和争议" style="ellipse;whiteSpace=wrap;html=1;" vertex="1" parent="1">
                    <mxGeometry x="425" y="420" width="110" height="40" as="geometry"/>
                </mxCell>
                <mxCell id="71" value="预收取上课费用" style="ellipse;whiteSpace=wrap;html=1;" vertex="1" parent="1">
                    <mxGeometry x="425" y="520" width="110" height="40" as="geometry"/>
                </mxCell>
                <mxCell id="72" value="结算家教费用" style="ellipse;whiteSpace=wrap;html=1;" vertex="1" parent="1">
                    <mxGeometry x="359" y="610" width="110" height="40" as="geometry"/>
                </mxCell>
                <mxCell id="73" value="退还家长费用" style="ellipse;whiteSpace=wrap;html=1;" vertex="1" parent="1">
                    <mxGeometry x="490" y="610" width="110" height="40" as="geometry"/>
                </mxCell>
                <mxCell id="74" value="收取平台服务费" style="ellipse;whiteSpace=wrap;html=1;" vertex="1" parent="1">
                    <mxGeometry x="440" y="700" width="110" height="40" as="geometry"/>
                </mxCell>
                <mxCell id="75" value="AI匹配引擎" style="shape=umlActor;verticalLabelPosition=bottom;verticalAlign=top;html=1;" vertex="1" parent="1">
                    <mxGeometry x="660" y="130" width="30" height="60" as="geometry"/>
                </mxCell>
                <mxCell id="77" value="管理员" style="shape=umlActor;verticalLabelPosition=bottom;verticalAlign=top;html=1;" vertex="1" parent="1">
                    <mxGeometry x="680" y="340" width="30" height="60" as="geometry"/>
                </mxCell>
                <mxCell id="78" value="财务管理人员" style="shape=umlActor;verticalLabelPosition=bottom;verticalAlign=top;html=1;" vertex="1" parent="1">
                    <mxGeometry x="690" y="535" width="30" height="60" as="geometry"/>
                </mxCell>
                <mxCell id="80" value="" style="endArrow=none;startArrow=none;endFill=0;startFill=0;endSize=8;html=1;verticalAlign=bottom;labelBackgroundColor=none;strokeWidth=3;entryX=0.5;entryY=0.5;entryDx=0;entryDy=0;entryPerimeter=0;" edge="1" parent="1" source="24" target="75">
                    <mxGeometry width="160" relative="1" as="geometry">
                        <mxPoint x="510" y="150" as="sourcePoint"/>
                        <mxPoint x="670" y="150" as="targetPoint"/>
                    </mxGeometry>
                </mxCell>
                <mxCell id="81" value="" style="endArrow=none;startArrow=none;endFill=0;startFill=0;endSize=8;html=1;verticalAlign=bottom;labelBackgroundColor=none;strokeWidth=3;entryX=0.5;entryY=0.5;entryDx=0;entryDy=0;entryPerimeter=0;" edge="1" parent="1" source="67" target="75">
                    <mxGeometry width="160" relative="1" as="geometry">
                        <mxPoint x="543" y="140" as="sourcePoint"/>
                        <mxPoint x="685" y="170" as="targetPoint"/>
                    </mxGeometry>
                </mxCell>
                <mxCell id="82" value="" style="endArrow=none;startArrow=none;endFill=0;startFill=0;endSize=8;html=1;verticalAlign=bottom;labelBackgroundColor=none;strokeWidth=3;exitX=0.5;exitY=0;exitDx=0;exitDy=0;entryX=0.537;entryY=0.7;entryDx=0;entryDy=0;entryPerimeter=0;" edge="1" parent="1" source="68" target="75">
                    <mxGeometry width="160" relative="1" as="geometry">
                        <mxPoint x="553" y="150" as="sourcePoint"/>
                        <mxPoint x="680" y="240" as="targetPoint"/>
                    </mxGeometry>
                </mxCell>
                <mxCell id="83" value="" style="endArrow=none;startArrow=none;endFill=0;startFill=0;endSize=8;html=1;verticalAlign=bottom;labelBackgroundColor=none;strokeWidth=3;entryX=0.5;entryY=0.5;entryDx=0;entryDy=0;entryPerimeter=0;" edge="1" parent="1" source="69" target="77">
                    <mxGeometry width="160" relative="1" as="geometry">
                        <mxPoint x="480" y="430" as="sourcePoint"/>
                        <mxPoint x="640" y="430" as="targetPoint"/>
                    </mxGeometry>
                </mxCell>
                <mxCell id="84" value="" style="endArrow=none;startArrow=none;endFill=0;startFill=0;endSize=8;html=1;verticalAlign=bottom;labelBackgroundColor=none;strokeWidth=3;entryX=0.5;entryY=0.5;entryDx=0;entryDy=0;entryPerimeter=0;" edge="1" parent="1" source="70" target="77">
                    <mxGeometry width="160" relative="1" as="geometry">
                        <mxPoint x="560" y="380" as="sourcePoint"/>
                        <mxPoint x="705" y="380" as="targetPoint"/>
                    </mxGeometry>
                </mxCell>
                <mxCell id="86" value="" style="endArrow=none;startArrow=none;endFill=0;startFill=0;endSize=8;html=1;verticalAlign=bottom;labelBackgroundColor=none;strokeWidth=3;entryX=0;entryY=0.3333333333333333;entryDx=0;entryDy=0;entryPerimeter=0;" edge="1" parent="1" source="71" target="78">
                    <mxGeometry width="160" relative="1" as="geometry">
                        <mxPoint x="500" y="545" as="sourcePoint"/>
                        <mxPoint x="660" y="545" as="targetPoint"/>
                    </mxGeometry>
                </mxCell>
                <mxCell id="87" value="" style="endArrow=none;startArrow=none;endFill=0;startFill=0;endSize=8;html=1;verticalAlign=bottom;labelBackgroundColor=none;strokeWidth=3;entryX=0.667;entryY=0.417;entryDx=0;entryDy=0;entryPerimeter=0;" edge="1" parent="1" source="72" target="78">
                    <mxGeometry width="160" relative="1" as="geometry">
                        <mxPoint x="544" y="554" as="sourcePoint"/>
                        <mxPoint x="700" y="565" as="targetPoint"/>
                    </mxGeometry>
                </mxCell>
                <mxCell id="88" value="" style="endArrow=none;startArrow=none;endFill=0;startFill=0;endSize=8;html=1;verticalAlign=bottom;labelBackgroundColor=none;strokeWidth=3;entryX=0.5;entryY=0.5;entryDx=0;entryDy=0;entryPerimeter=0;" edge="1" parent="1" source="73" target="78">
                    <mxGeometry width="160" relative="1" as="geometry">
                        <mxPoint x="554" y="564" as="sourcePoint"/>
                        <mxPoint x="710" y="575" as="targetPoint"/>
                    </mxGeometry>
                </mxCell>
                <mxCell id="89" value="" style="endArrow=none;startArrow=none;endFill=0;startFill=0;endSize=8;html=1;verticalAlign=bottom;labelBackgroundColor=none;strokeWidth=3;entryX=0.5;entryY=0.5;entryDx=0;entryDy=0;entryPerimeter=0;" edge="1" parent="1" source="74" target="78">
                    <mxGeometry width="160" relative="1" as="geometry">
                        <mxPoint x="564" y="574" as="sourcePoint"/>
                        <mxPoint x="720" y="585" as="targetPoint"/>
                    </mxGeometry>
                </mxCell>
                <mxCell id="92" value="&amp;lt;&amp;lt;extend&amp;gt;&amp;gt;" style="html=1;verticalAlign=bottom;labelBackgroundColor=none;endArrow=open;endFill=0;dashed=1;" edge="1" parent="1" source="70" target="99">
                    <mxGeometry width="160" relative="1" as="geometry">
                        <mxPoint x="310" y="610" as="sourcePoint"/>
                        <mxPoint x="470" y="610" as="targetPoint"/>
                    </mxGeometry>
                </mxCell>
                <mxCell id="94" value="&amp;lt;&amp;lt;extend&amp;gt;&amp;gt;" style="html=1;verticalAlign=bottom;labelBackgroundColor=none;endArrow=open;endFill=0;dashed=1;" edge="1" parent="1" source="70" target="19">
                    <mxGeometry width="160" relative="1" as="geometry">
                        <mxPoint x="359.00174605845837" y="796.3018468089446" as="sourcePoint"/>
                        <mxPoint x="543.6913950247882" y="535.0006674177527" as="targetPoint"/>
                    </mxGeometry>
                </mxCell>
                <mxCell id="95" value="&amp;lt;&amp;lt;extend&amp;gt;&amp;gt;" style="html=1;verticalAlign=bottom;labelBackgroundColor=none;endArrow=open;endFill=0;dashed=1;" edge="1" parent="1" source="72" target="71">
                    <mxGeometry width="160" relative="1" as="geometry">
                        <mxPoint x="320" y="500" as="sourcePoint"/>
                        <mxPoint x="480" y="500" as="targetPoint"/>
                    </mxGeometry>
                </mxCell>
                <mxCell id="99" value="中途取消订单" style="ellipse;whiteSpace=wrap;html=1;" vertex="1" parent="1">
                    <mxGeometry x="204" y="190" width="96" height="30" as="geometry"/>
                </mxCell>
                <mxCell id="100" value="&lt;span style=&quot;font-family: monospace; font-size: 0px; text-align: start;&quot;&gt;%3CmxGraphModel%3E%3Croot%3E%3CmxCell%20id%3D%220%22%2F%3E%3CmxCell%20id%3D%221%22%20parent%3D%220%22%2F%3E%3CmxCell%20id%3D%222%22%20value%3D%22%22%20style%3D%22endArrow%3Dnone%3BstartArrow%3Dnone%3BendFill%3D0%3BstartFill%3D0%3BendSize%3D8%3Bhtml%3D1%3BverticalAlign%3Dbottom%3BlabelBackgroundColor%3Dnone%3BstrokeWidth%3D3%3B%22%20edge%3D%221%22%20parent%3D%221%22%3E%3CmxGeometry%20width%3D%22160%22%20relative%3D%221%22%20as%3D%22geometry%22%3E%3CmxPoint%20x%3D%2290%22%20y%3D%22159%22%20as%3D%22sourcePoint%22%2F%3E%3CmxPoint%20x%3D%22199%22%20y%3D%22160%22%20as%3D%22targetPoint%22%2F%3E%3C%2FmxGeometry%3E%3C%2FmxCell%3E%3C%2Froot%3E%3C%2FmxGraphModel%3E&lt;/span&gt;&lt;span style=&quot;font-family: monospace; font-size: 0px; text-align: start;&quot;&gt;%3CmxGraphModel%3E%3Croot%3E%3CmxCell%20id%3D%220%22%2F%3E%3CmxCell%20id%3D%221%22%20parent%3D%220%22%2F%3E%3CmxCell%20id%3D%222%22%20value%3D%22%22%20style%3D%22endArrow%3Dnone%3BstartArrow%3Dnone%3BendFill%3D0%3BstartFill%3D0%3BendSize%3D8%3Bhtml%3D1%3BverticalAlign%3Dbottom%3BlabelBackgroundColor%3Dnone%3BstrokeWidth%3D3%3B%22%20edge%3D%221%22%20parent%3D%221%22%3E%3CmxGeometry%20width%3D%22160%22%20relative%3D%221%22%20as%3D%22geometry%22%3E%3CmxPoint%20x%3D%2290%22%20y%3D%22159%22%20as%3D%22sourcePoint%22%2F%3E%3CmxPoint%20x%3D%22199%22%20y%3D%22160%22%20as%3D%22targetPoint%22%2F%3E%3C%2FmxGeometry%3E%3C%2FmxCell%3E%3C%2Froot%3E%3C%2FmxGraphModel%3E&lt;/span&gt;" style="endArrow=none;startArrow=none;endFill=0;startFill=0;endSize=8;html=1;verticalAlign=bottom;labelBackgroundColor=none;strokeWidth=3;" edge="1" parent="1" target="99">
                    <mxGeometry width="160" relative="1" as="geometry">
                        <mxPoint x="100" y="169" as="sourcePoint"/>
                        <mxPoint x="209" y="170" as="targetPoint"/>
                    </mxGeometry>
                </mxCell>
                <mxCell id="102" value="&amp;lt;&amp;lt;extend&amp;gt;&amp;gt;" style="html=1;verticalAlign=bottom;labelBackgroundColor=none;endArrow=open;endFill=0;dashed=1;" edge="1" parent="1" source="73" target="71">
                    <mxGeometry width="160" relative="1" as="geometry">
                        <mxPoint x="320" y="480" as="sourcePoint"/>
                        <mxPoint x="480" y="480" as="targetPoint"/>
                    </mxGeometry>
                </mxCell>
                <mxCell id="103" value="&amp;lt;&amp;lt;include&amp;gt;&amp;gt;" style="html=1;verticalAlign=bottom;labelBackgroundColor=none;endArrow=open;endFill=0;dashed=1;" edge="1" parent="1" source="74" target="72">
                    <mxGeometry x="-0.2136" y="-1" width="160" relative="1" as="geometry">
                        <mxPoint x="320" y="480" as="sourcePoint"/>
                        <mxPoint x="480" y="480" as="targetPoint"/>
                        <mxPoint as="offset"/>
                    </mxGeometry>
                </mxCell>
                <mxCell id="104" value="&amp;lt;&amp;lt;include&amp;gt;&amp;gt;" style="html=1;verticalAlign=bottom;labelBackgroundColor=none;endArrow=open;endFill=0;dashed=1;" edge="1" parent="1" source="67" target="68">
                    <mxGeometry width="160" relative="1" as="geometry">
                        <mxPoint x="320" y="480" as="sourcePoint"/>
                        <mxPoint x="480" y="290" as="targetPoint"/>
                    </mxGeometry>
                </mxCell>
                <mxCell id="106" value="&amp;lt;&amp;lt;include&amp;gt;&amp;gt;" style="html=1;verticalAlign=bottom;labelBackgroundColor=none;endArrow=open;endFill=0;dashed=1;" edge="1" parent="1" source="24" target="67">
                    <mxGeometry width="160" relative="1" as="geometry">
                        <mxPoint x="320" y="480" as="sourcePoint"/>
                        <mxPoint x="480" y="190" as="targetPoint"/>
                    </mxGeometry>
                </mxCell>
            </root>
        </mxGraphModel>
    </diagram>
</mxfile>